<?xml version="1.0" standalone="no"?>
<!DOCTYPE svg PUBLIC "-//W3C//DTD SVG 20010904//EN"
 "http://www.w3.org/TR/2001/REC-SVG-20010904/DTD/svg10.dtd">
<svg version="1.0" xmlns="http://www.w3.org/2000/svg"
 width="885.000000pt" height="885.000000pt" viewBox="0 0 885.000000 885.000000"
 preserveAspectRatio="xMidYMid meet">
<metadata>
Created by potrace 1.14, written by Peter Selinger 2001-2017
</metadata>
<g transform="translate(0.000000,885.000000) scale(0.100000,-0.100000)"
fill="#000000" stroke="none">
<path d="M4320 7487 c-130 -44 -240 -156 -280 -284 -20 -64 -20 -91 -20 -1158
0 -1067 0 -1094 20 -1158 40 -130 158 -247 288 -287 63 -20 98 -20 1852 -20
1763 0 1789 0 1853 20 130 40 247 158 287 288 19 62 20 96 20 1157 0 1061 -1
1095 -20 1157 -40 130 -157 248 -287 288 -64 20 -90 20 -1857 20 l-1791 -1
-65 -22z"/>
<path d="M2520 7037 c-130 -44 -240 -156 -280 -284 -20 -64 -20 -90 -20 -1763
0 -1673 0 -1699 20 -1763 40 -130 158 -247 288 -287 63 -20 100 -20 2482 -20
2382 0 2419 0 2482 20 130 40 248 157 288 287 19 61 20 93 20 484 l0 419
-1652 0 c-981 0 -1693 4 -1752 10 -210 21 -383 96 -533 234 -113 103 -218 276
-257 422 -31 118 -35 262 -36 1262 l0 1002 -492 0 c-483 -1 -494 -1 -558 -23z"/>
<path d="M810 6137 c-130 -44 -240 -156 -280 -284 -20 -64 -20 -90 -20 -2103
0 -2013 0 -2039 20 -2103 40 -130 158 -247 288 -287 63 -20 101 -20 2887 -20
2786 0 2824 0 2887 20 130 40 248 157 288 287 19 60 20 93 20 444 l0 379
-2102 0 c-1269 0 -2142 4 -2202 10 -118 12 -196 32 -293 76 -197 89 -345 234
-438 429 -53 111 -72 183 -85 311 -5 58 -10 674 -10 1482 l0 1382 -447 0
c-437 -1 -450 -1 -513 -23z"/>
</g>
</svg>
